<svg width="132" height="41" viewBox="0 0 132 41" fill="none" xmlns="http://www.w3.org/2000/svg">
<path d="M20.4581 29.982C20.4015 28.7928 20.3397 27.6087 20.2831 26.4196C20.1955 24.6281 20.108 22.8365 20.0154 21.045C15.3822 21.1377 10.7438 21.2304 6.1106 21.2819C6.17752 21.9254 6.2393 22.5689 6.30622 23.2124C6.7541 27.6139 7.20197 32.0103 7.64985 36.4118H21.6215V30.3681C21.3641 30.3681 21.1016 30.3681 20.8442 30.3681C20.628 30.3681 20.4684 30.193 20.4581 29.982Z" fill="#F7F4F7"/>
<path d="M31.7374 28.3912C31.7374 28.386 31.7374 28.386 31.7374 28.3912C31.7374 27.9999 31.7374 27.6087 31.7374 27.2174C31.7374 26.1158 31.7374 25.0192 31.7374 23.9176C31.5006 24.0669 31.238 24.2265 30.9292 24.2265C30.8828 24.2265 30.8365 24.2213 30.785 24.2162C30.7078 24.2059 30.646 24.1595 30.6048 24.0926C30.5637 24.0257 30.5585 23.9485 30.5843 23.8764L31.6602 20.8494C28.036 20.9008 24.4118 20.9626 20.7876 21.0398C20.9266 23.897 21.0707 26.749 21.2097 29.6061C21.4774 29.6061 21.74 29.6061 22.0077 29.6061C22.1003 29.6061 22.1879 29.6061 22.2805 29.6061C25.4311 29.6061 28.5817 29.6061 31.7323 29.6061C31.7374 29.1943 31.7374 28.7927 31.7374 28.3912ZM29.0038 26.2702C29.0038 26.5945 28.7413 26.8519 28.4221 26.8519H24.4015C24.0926 26.8519 23.8352 26.61 23.8198 26.296L23.722 24.2728C23.7065 23.9433 23.9639 23.6653 24.2934 23.6602L28.4118 23.5778C28.7361 23.5727 29.009 23.8352 29.009 24.1595V26.2702H29.0038Z" fill="#F7F4F7"/>
<path d="M19.9794 20.2472C19.8816 18.2497 19.7837 16.2523 19.6859 14.2549L4.12866 14.5947C4.13896 14.7388 4.1544 14.8829 4.1647 15.0219C4.18014 15.197 4.19559 15.372 4.21103 15.547L7.99996 15.4853C8.31914 15.4801 8.58169 15.7272 8.59198 16.0464L8.68979 18.5638C8.70009 18.8778 8.45813 19.1506 8.14411 19.1712L4.53021 19.2433C4.5508 19.4595 4.56624 19.6757 4.58683 19.8919C4.60743 20.1082 4.55595 20.5046 4.82364 20.5252C4.83394 20.5252 4.83909 20.5303 4.84938 20.5303C4.85453 20.5303 4.85968 20.5252 4.86483 20.5252C7.33587 20.4994 9.80176 20.4531 12.2728 20.4067C14.8365 20.3656 17.4054 20.3089 19.9794 20.2472Z" fill="#F7F4F7"/>
<path d="M19.5161 10.888C19.3616 7.77863 19.2072 4.66923 19.0528 1.55469C16.0978 1.80179 13.1429 2.0489 10.1879 2.296C8.01029 2.47618 5.83783 2.66151 3.66023 2.84169C2.99099 2.89832 2.32175 2.95495 1.6525 3.01157C1.40025 3.03217 0.78764 2.94465 0.777344 3.34619L2.34234 13.6628C2.34749 13.6885 2.35263 13.7091 2.36293 13.7349C2.37323 13.7503 2.37837 13.7658 2.38867 13.7812C2.39897 13.7915 2.40926 13.8069 2.42471 13.8172C2.44015 13.8275 2.45045 13.8327 2.46589 13.843C2.48648 13.8481 2.50707 13.8533 2.52767 13.8584C2.53281 13.8584 2.54311 13.8584 2.54826 13.8584L19.6448 13.4878C19.5984 12.6178 19.5573 11.7529 19.5161 10.888ZM8.25225 9.09137C8.07207 9.28699 7.83011 9.3951 7.56241 9.40025L3.58301 9.49291C3.57271 9.49291 3.56756 9.49291 3.55727 9.49291C3.0785 9.49291 2.66666 9.1377 2.59974 8.66408L2.04375 4.84941C2.00257 4.58172 2.07464 4.31402 2.24453 4.10295C2.40926 3.89188 2.65637 3.76318 2.92406 3.73744L7.25868 3.37193C7.52123 3.35134 7.77863 3.43371 7.9794 3.60874C8.18017 3.78377 8.29858 4.02573 8.30887 4.28828L8.50965 8.3758C8.52509 8.64349 8.43243 8.89574 8.25225 9.09137Z" fill="#F7F4F7"/>
<path d="M28.036 0.803101C27.0219 0.890617 26.0026 0.972985 24.9884 1.0605C24.0412 1.13772 23.0991 1.22009 22.1519 1.29731C24.139 1.7143 26.1158 2.15703 28.103 2.57916C28.0772 1.98714 28.0566 1.39512 28.036 0.803101Z" fill="#F7F4F7"/>
<path d="M38.3167 27.8044V24.0257C38.2035 23.9691 38.0954 23.9022 38.0027 23.8404C37.9152 23.7786 37.8277 23.722 37.7299 23.6808C37.5651 23.6088 37.3644 23.6036 37.1996 23.6705C37.107 23.7066 37.0091 23.7683 36.9113 23.8301C36.7106 23.9537 36.4892 24.0978 36.2009 24.0978C35.9126 24.0978 35.6861 23.9537 35.4853 23.825C35.403 23.7735 35.3257 23.722 35.2382 23.6808C35.022 23.583 34.7595 23.5779 34.5381 23.6654C34.4351 23.7066 34.3373 23.7683 34.2395 23.8301C34.0182 23.964 33.7556 24.1133 33.4467 24.1081C33.179 24.0978 32.9628 23.964 32.7723 23.8507C32.6797 23.7941 32.5922 23.7478 32.5046 23.7117C32.5046 25.1429 32.5046 26.5792 32.5046 28.0103H38.116C38.2292 28.0052 38.3167 27.9125 38.3167 27.8044Z" fill="#F7F4F7"/>
<path d="M24.1443 34.3733V31.4852H23.681C23.5729 31.4852 23.4854 31.5727 23.4854 31.6809V35.2175C23.4854 35.3256 23.5729 35.4132 23.681 35.4132H27.8509C27.959 35.4132 28.0465 35.3256 28.0465 35.2175V34.7594H24.5252C24.3142 34.7594 24.1443 34.5843 24.1443 34.3733Z" fill="#F7F4F7"/>
<path d="M7.4696 4.1956C7.44386 4.17501 7.39238 4.13898 7.32546 4.14927L2.98569 4.50963C2.91362 4.51478 2.86729 4.56111 2.8467 4.5817C2.8261 4.60744 2.79522 4.66407 2.80551 4.73615L3.36664 8.55597C3.38209 8.65378 3.4799 8.74644 3.56742 8.72585L7.54682 8.63319C7.6189 8.63319 7.66523 8.592 7.68582 8.57141C7.70641 8.55082 7.74245 8.49934 7.7373 8.42727L7.53653 4.33975C7.53138 4.26253 7.49534 4.2162 7.4696 4.1956Z" fill="#F7F4F7"/>
<path d="M41.7348 24.0669C41.1788 24.1286 40.8236 23.9485 40.5353 23.8043C40.2985 23.6859 40.1595 23.6241 39.9691 23.655C39.8198 23.6808 39.6653 23.7683 39.5057 23.8558C39.377 23.9279 39.238 24.0051 39.0888 24.0566V27.7992C39.0888 28.3346 38.6512 28.767 38.1209 28.767H32.5096C32.5096 29.1685 32.5096 29.5701 32.5096 29.9768C32.5096 30.1878 32.3346 30.3629 32.1235 30.3629C31.6447 30.3629 31.166 30.3629 30.6872 30.3629C27.9227 30.3629 25.1634 30.3629 22.3989 30.3629V36.4169C22.852 36.4581 23.2123 36.8133 23.2689 37.2612H29.2715V31.099C29.2715 30.888 29.4465 30.7129 29.6576 30.7129H31.9742C32.0772 30.7129 32.1801 30.7541 32.2522 30.8313C32.3243 30.9034 32.3655 31.0064 32.3603 31.1093L32.2213 37.6679C32.2162 37.879 32.0463 38.0437 31.8352 38.0437H23.2741V39.2174C25.5083 39.2174 27.7477 39.2174 29.9819 39.2174C33.6628 39.2174 37.3436 39.2174 41.0244 39.2174C41.148 36.6434 41.2715 34.0643 41.3951 31.4903H40.9317L40.6743 37.117C40.6538 37.637 40.2265 38.0437 39.7065 38.0437H34.054C33.7915 38.0437 33.5444 37.9407 33.3642 37.7554C33.1788 37.5701 33.081 37.323 33.0862 37.0604L33.1891 31.6705C33.1994 31.1454 33.6319 30.7181 34.157 30.7181H40.5662H40.5714H42.3114C42.3114 30.7181 42.3114 30.7181 42.3166 30.7181C42.3166 30.7181 42.3166 30.7181 42.3217 30.7181C42.3938 30.7284 42.435 30.682 42.4607 30.6614C42.5019 30.6203 42.5225 30.5636 42.5225 30.507V22.2856L41.9613 23.897C41.9202 23.9896 41.8326 24.0566 41.7348 24.0669ZM28.8185 35.2174C28.8185 35.7528 28.3809 36.1853 27.8507 36.1853H23.6808C23.1454 36.1853 22.713 35.7528 22.713 35.2174V31.6808C22.713 31.1454 23.1505 30.7129 23.6808 30.7129H27.8507C28.3861 30.7129 28.8185 31.1505 28.8185 31.6808V35.2174Z" fill="#F7F4F7"/>
<path d="M43.8148 8.66409C43.8148 8.65894 43.8148 8.65379 43.8148 8.64864C43.8096 8.62805 43.8045 8.60231 43.7942 8.58172C43.789 8.56628 43.7787 8.55598 43.7736 8.54568C43.7633 8.53539 43.7479 8.51994 43.7376 8.50965C43.7273 8.49935 43.7118 8.4942 43.6964 8.48906C43.6706 8.47876 43.6449 8.47361 43.6243 8.46846C42.883 8.43243 42.1468 8.39124 41.4055 8.35521C38.8109 8.22136 36.2215 8.08751 33.6269 7.95366C33.2871 7.93822 32.8907 7.88159 32.5098 7.88159C32.5098 8.68983 32.5098 9.49807 32.5098 10.3012C32.5098 13.5341 32.5098 16.7722 32.5098 20.0051C35.9692 19.964 39.4287 19.9588 42.8881 20.0154C42.8933 20.0154 42.8984 20.0103 42.9036 20.0103C42.9087 20.0103 42.9139 20.0154 42.919 20.0154C43.1764 20.0206 43.439 20.0206 43.6964 20.0257C43.7015 20.0257 43.7015 20.0257 43.7067 20.0257C43.7273 20.0206 43.753 20.0154 43.7736 20.0051C43.789 20 43.7993 19.9897 43.8096 19.9845C43.8199 19.9743 43.8354 19.9588 43.8457 19.9485C43.856 19.9382 43.8611 19.9228 43.8663 19.9125C43.8714 19.8919 43.8817 19.8661 43.8869 19.8456C43.8869 19.8456 43.8869 19.8456 43.8869 19.8404L43.8148 8.66409ZM41.5291 16C41.5291 16.5354 41.0915 16.9678 40.5612 16.9678H35.5265C34.9911 16.9678 34.5587 16.5302 34.5587 16V11.7477C34.5587 11.48 34.6616 11.2329 34.8521 11.0528C35.0426 10.8674 35.2948 10.7696 35.5574 10.7799L40.587 10.9498C41.1121 10.9704 41.5239 11.3925 41.5239 11.9176V16H41.5291Z" fill="#F7F4F7"/>
<path d="M40.5664 11.722L40.0979 11.7065V15.1557C40.0979 15.3668 39.9228 15.5418 39.7118 15.5418H35.3257V16C35.3257 16.1081 35.4132 16.1956 35.5213 16.1956H40.5561C40.6642 16.1956 40.7517 16.1081 40.7517 16V11.9176C40.7568 11.8095 40.6745 11.722 40.5664 11.722Z" fill="#F7F4F7"/>
<path d="M33.9562 31.6808L33.8533 37.0707C33.8533 37.1428 33.8893 37.1891 33.9099 37.2097C33.9305 37.2303 33.9768 37.2663 34.0489 37.2663H39.7014C39.8095 37.2663 39.8919 37.184 39.897 37.0759L40.1544 31.48H34.157C34.0489 31.4851 33.9614 31.5726 33.9562 31.6808Z" fill="#F7F4F7"/>
<path d="M44.6588 19.8353L44.5816 8.65895C44.5816 8.65895 44.5816 8.65895 44.5816 8.6538C44.5816 8.40154 44.4838 8.16474 44.3087 7.98456C44.2624 7.93308 44.2058 7.89189 44.1492 7.85586C44.1183 7.83526 44.0874 7.81467 44.0513 7.79923C43.9896 7.76834 43.9226 7.7426 43.8557 7.72201C43.7836 7.70656 43.7116 7.69627 43.6395 7.69112C41.6266 7.58816 39.6138 7.4852 37.6009 7.37709C36.4786 7.32046 35.3512 7.25869 34.229 7.20206V3.01673C34.229 2.95496 34.2187 2.89318 34.2084 2.8314C34.2032 2.80051 34.1981 2.76963 34.1878 2.74389C34.162 2.66152 34.126 2.574 34.0745 2.49678C34.023 2.42471 33.9664 2.34749 33.8995 2.29601C33.8531 2.25997 33.8068 2.21879 33.7502 2.1879C33.7193 2.16731 33.6833 2.15701 33.6472 2.14157C33.6369 2.13642 33.6318 2.13127 33.6266 2.12613L28.597 0.036036C28.5867 0.030888 28.5816 0.036036 28.5713 0.030888C28.5559 0.02574 28.5404 0.02574 28.525 0.020592C28.4941 0.010296 28.4632 0 28.4323 0.00514801C28.422 0.00514801 28.4169 0 28.4066 0C25.1118 0.277992 21.8171 0.550837 18.5224 0.828829C13.5288 1.24582 8.53526 1.66281 3.54169 2.08494C2.82097 2.14157 2.1054 2.20335 1.38468 2.26512C0.694848 2.32175 -0.0104288 2.47104 -0.000132759 3.3565C-0.000132759 3.3668 0.00501525 3.37194 0.00501525 3.38224C0.00501525 3.39254 -0.000132759 3.40283 0.00501525 3.41313L1.5803 13.8018C1.5803 13.8121 1.58545 13.8172 1.5906 13.8275C1.5906 13.8327 1.5906 13.8378 1.5906 13.843C1.60604 13.9459 1.64723 14.0489 1.70386 14.1416C1.75534 14.2291 1.81711 14.3115 1.89433 14.3732C1.94581 14.4144 1.99729 14.4556 2.05392 14.4916C2.11055 14.5225 2.17233 14.5483 2.2341 14.574C2.27014 14.5894 2.30617 14.5946 2.34221 14.6049C2.40913 14.6152 2.48121 14.6255 2.55328 14.6255C2.55843 14.6255 2.55843 14.6255 2.56357 14.6255L3.36151 14.61C3.5211 16.4376 3.67554 18.2703 3.83513 20.0978C3.84543 20.1905 3.85057 20.2831 3.86087 20.381C3.92265 20.9163 4.2933 21.2613 4.8287 21.3024C4.83384 21.3024 4.83384 21.3024 4.83899 21.3024C4.84929 21.3024 4.85958 21.3076 4.86988 21.3076C5.02947 21.3076 5.18906 21.3024 5.34864 21.3024C5.88918 26.6358 6.43487 31.9743 6.97541 37.3076C7.05263 38.0746 7.12985 38.8417 7.20707 39.6088C7.22767 39.8147 7.36666 39.9949 7.59317 39.9949C11.3975 39.9949 15.1968 39.9949 19.0012 39.9949C20.2779 39.9949 21.5597 39.9949 22.8364 39.9949C22.857 40 22.8725 40.0051 22.893 40.0051C22.9136 40.0051 22.9291 39.9949 22.9497 39.9949C27.7013 39.9949 32.4529 39.9949 37.2045 39.9949C38.6048 39.9949 40.005 39.9949 41.4001 39.9949C41.6163 39.9949 41.7759 39.8198 41.7862 39.6088C41.9149 36.9061 42.0436 34.1982 42.1723 31.4955H42.301H42.3062C42.3113 31.4955 42.3113 31.4955 42.3165 31.4955C42.5687 31.4955 42.8107 31.3977 42.9909 31.2175C43.1813 31.0322 43.2843 30.7799 43.2843 30.5122V20.7928C43.4233 20.7928 43.5571 20.7928 43.6961 20.7979C43.9484 20.7979 44.1955 20.695 44.3757 20.52C44.5558 20.3398 44.6588 20.0927 44.6588 19.8353C44.6588 19.8404 44.6588 19.8404 44.6588 19.8353ZM24.9831 1.06049C25.9973 0.972973 27.0166 0.890605 28.0308 0.803089C28.0513 1.39511 28.0719 1.98713 28.0925 2.57915C26.1105 2.15701 24.1286 1.71429 22.1414 1.2973C23.0938 1.21493 24.041 1.13771 24.9831 1.06049ZM28.4014 3.43372C28.4169 3.43887 28.4272 3.43372 28.4374 3.43372C28.458 3.43887 28.4786 3.44916 28.5044 3.44916C28.525 3.44916 28.5456 3.43887 28.561 3.43887C28.5661 3.43887 28.5713 3.43887 28.5764 3.43372C28.7515 3.39768 28.8956 3.24839 28.8905 3.06306C28.8647 2.36293 28.839 1.65766 28.8133 0.952381L33.3178 2.82625C33.3383 2.83655 33.3589 2.85199 33.3795 2.86229C33.3898 2.87259 33.4053 2.88803 33.4156 2.89833C33.4259 2.91377 33.431 2.92922 33.4413 2.93951C33.4516 2.9601 33.4567 2.98584 33.4619 3.00644C33.4619 3.01158 33.4619 3.01158 33.4619 3.01673V7.16602C32.7927 7.11454 31.9999 7.00644 31.413 7.30502C30.9085 7.56242 30.4709 8.04118 30.0436 8.40669C29.5906 8.79794 29.1324 9.18404 28.6794 9.57529C28.6228 9.62677 28.5764 9.6834 28.5301 9.74517C28.5044 9.78121 28.4786 9.81725 28.4632 9.85843C28.4323 9.92535 28.4014 9.99228 28.386 10.0695C28.3757 10.121 28.3705 10.1776 28.3654 10.2342C28.3654 10.26 28.3602 10.2806 28.3602 10.3063C28.3963 11.7529 28.4323 13.2046 28.4632 14.6512C25.7862 14.2188 23.099 13.8687 20.4117 13.5187C20.2676 10.5792 20.1234 7.63964 19.9741 4.69498C19.9226 3.66538 19.8712 2.63578 19.8197 1.60618C22.6974 2.17246 25.5443 2.8314 28.4014 3.43372ZM32.5095 23.7014C32.597 23.7375 32.6846 23.7838 32.7772 23.8404C32.9677 23.9588 33.1839 24.0875 33.4516 24.0978C33.7605 24.1081 34.0179 23.9588 34.2444 23.8198C34.3422 23.758 34.44 23.7014 34.543 23.6551C34.7643 23.5676 35.0269 23.5727 35.2431 23.6705C35.3306 23.7117 35.4078 23.7632 35.4902 23.8147C35.691 23.9434 35.9175 24.0875 36.2058 24.0875C36.4941 24.0875 36.7154 23.9485 36.9162 23.8198C37.0192 23.758 37.1118 23.6963 37.2045 23.6602C37.3744 23.5933 37.57 23.5985 37.7347 23.6705C37.8326 23.7117 37.9201 23.7735 38.0076 23.8301C38.1003 23.897 38.2084 23.964 38.3216 24.0154V27.7941C38.3216 27.9022 38.2341 27.9897 38.126 27.9897H32.5147C32.5095 26.5689 32.5095 25.1377 32.5095 23.7014ZM28.597 20.0618C25.9818 20.1081 23.3667 20.1647 20.7463 20.2265C20.6485 18.2497 20.5507 16.2728 20.4529 14.296C23.135 14.6461 25.8171 14.991 28.4838 15.4286C28.5147 16.6847 28.5456 17.9459 28.5764 19.2021C28.5816 19.4903 28.5919 19.7786 28.597 20.0618ZM2.54813 13.8533C2.54298 13.8533 2.53269 13.8533 2.52754 13.8533C2.50695 13.8481 2.48635 13.843 2.46576 13.8378C2.45032 13.8275 2.43487 13.8224 2.42458 13.8121C2.41428 13.8018 2.39884 13.7915 2.38854 13.7761C2.37825 13.7606 2.3731 13.7452 2.3628 13.7297C2.35765 13.7091 2.34736 13.6834 2.34221 13.6577L0.777216 3.3462C0.787512 2.94466 1.40012 3.03732 1.65238 3.01673C2.32162 2.9601 2.99086 2.90348 3.6601 2.84685C5.83771 2.66667 8.01016 2.48134 10.1878 2.30116C13.1427 2.05405 16.0977 1.80695 19.0526 1.55985C19.2071 4.66924 19.3615 7.77864 19.516 10.8932C19.5571 11.758 19.6035 12.6229 19.6447 13.4878L2.54813 13.8533ZM4.86473 20.5302C4.85958 20.5302 4.85444 20.5354 4.84929 20.5354C4.83899 20.5354 4.83384 20.5302 4.82355 20.5302C4.55585 20.5097 4.60218 20.1081 4.58674 19.897C4.56615 19.6808 4.5507 19.4646 4.53011 19.2484L8.14401 19.1815C8.45804 19.1609 8.7 18.8932 8.6897 18.574L8.59189 16.0566C8.58159 15.7375 8.3139 15.4903 7.99987 15.4955L4.21094 15.547C4.19549 15.3719 4.18005 15.1969 4.1646 15.0219C4.15431 14.8777 4.13886 14.7336 4.12857 14.5946L19.6807 14.2548C19.7785 16.2523 19.8763 18.2497 19.9741 20.2471C17.4053 20.3089 14.8364 20.3655 12.2676 20.417C9.80167 20.4633 7.33063 20.5097 4.86473 20.5302ZM21.6215 36.417H7.6498C7.20193 32.0154 6.75405 27.619 6.30617 23.2175C6.23925 22.574 6.17747 21.9305 6.11055 21.287C10.7438 21.2355 15.3821 21.1429 20.0153 21.0502C20.1028 22.8417 20.1903 24.6332 20.283 26.4247C20.3396 27.6139 20.4014 28.7979 20.458 29.9871C20.4683 30.1931 20.6279 30.3732 20.8441 30.3732C21.1015 30.3732 21.3641 30.3732 21.6215 30.3732V36.417ZM22.0127 29.5959C22.0127 29.5959 22.0076 29.5959 22.0127 29.5959C22.0076 29.5959 22.0076 29.5959 22.0127 29.5959C21.745 29.5959 21.4773 29.5959 21.2148 29.5959C21.0758 26.7387 20.9317 23.8867 20.7927 21.0296C24.4169 20.9575 28.041 20.8906 31.6652 20.8391L30.5893 23.8662C30.5636 23.9382 30.5739 24.0154 30.6099 24.0824C30.6511 24.1493 30.7129 24.1956 30.7901 24.2059C30.8416 24.2162 30.8879 24.2162 30.9342 24.2162C31.2431 24.2162 31.5057 24.0566 31.7425 23.9073C31.7425 25.009 31.7425 26.1055 31.7425 27.2072C31.7425 27.5985 31.7425 27.9897 31.7425 28.381C31.7425 28.7825 31.7425 29.184 31.7425 29.5907C28.5919 29.5907 25.4413 29.5907 22.2907 29.5907C22.1929 29.5959 22.1003 29.5959 22.0127 29.5959ZM42.5121 30.5019C42.5121 30.5637 42.4915 30.6152 42.4503 30.6564C42.4297 30.677 42.3834 30.7233 42.3113 30.713C42.3113 30.713 42.3113 30.713 42.3062 30.713C42.3062 30.713 42.3062 30.713 42.301 30.713H40.5661H40.561H34.1569C33.6318 30.713 33.1993 31.1403 33.1891 31.6654L33.0861 37.0553C33.0809 37.3179 33.1788 37.565 33.3641 37.7503C33.5494 37.9357 33.7914 38.0386 34.0539 38.0386H39.7064C40.2264 38.0386 40.6537 37.6319 40.6743 37.112L40.9368 31.4801H41.4001C41.2766 34.0541 41.153 36.6332 41.0295 39.2072C37.3486 39.2072 33.6678 39.2072 29.987 39.2072C27.7528 39.2072 25.5134 39.2072 23.2791 39.2072V38.0438H31.8351C32.0462 38.0438 32.2161 37.8739 32.2212 37.668L32.3602 31.1094C32.3602 31.0064 32.3242 30.9035 32.2521 30.8314C32.18 30.7593 32.0822 30.713 31.9741 30.713H29.6575C29.4465 30.713 29.2714 30.888 29.2714 31.0991V37.2716H23.2637C23.2122 36.8185 22.8467 36.4685 22.3937 36.4273V30.3681C25.1582 30.3681 27.9175 30.3681 30.682 30.3681C31.1607 30.3681 31.6395 30.3681 32.1183 30.3681C32.3293 30.3681 32.5044 30.1931 32.5044 29.982C32.5044 29.5804 32.5044 29.1789 32.5044 28.7722H38.1157C38.6511 28.7722 39.0835 28.3346 39.0835 27.8044V24.0618C39.2328 24.0103 39.3718 23.9331 39.5005 23.861C39.6601 23.7735 39.8145 23.686 39.9638 23.6602C40.1492 23.6242 40.2933 23.6911 40.5301 23.8095C40.8133 23.9537 41.1685 24.1338 41.7296 24.0721C41.8274 24.0618 41.9098 23.9949 41.9458 23.9022L42.5069 22.2909V30.5019H42.5121ZM40.1595 31.4852L39.9021 37.0811C39.8969 37.1892 39.8094 37.2716 39.7064 37.2716H34.0539C33.9818 37.2716 33.9355 37.2355 33.9149 37.2149C33.8943 37.1943 33.8583 37.1429 33.8583 37.0759L33.9613 31.686C33.9613 31.5779 34.0539 31.4903 34.1569 31.4903H40.1595V31.4852ZM43.8866 19.8456C43.8815 19.8662 43.8763 19.8919 43.866 19.9125C43.8609 19.9228 43.8506 19.9382 43.8454 19.9485C43.8351 19.9588 43.8197 19.9743 43.8094 19.9846C43.7991 19.9949 43.7836 20 43.7733 20.0051C43.7528 20.0103 43.727 20.0206 43.7064 20.0257C43.7013 20.0257 43.7013 20.0257 43.6961 20.0257C43.4387 20.0206 43.1762 20.0206 42.9188 20.0154C42.9136 20.0154 42.9085 20.0103 42.9033 20.0103C42.8982 20.0103 42.893 20.0154 42.8879 20.0154C39.4284 19.9588 35.969 19.964 32.5095 20.0051C32.5095 16.7722 32.5095 13.5341 32.5095 10.3012C32.5095 9.49292 32.5095 8.68469 32.5095 7.8816C32.8905 7.87645 33.2869 7.93308 33.6266 7.95367C36.2212 8.08752 38.8107 8.22136 41.4053 8.35521C42.1466 8.39125 42.8827 8.43243 43.6241 8.46847C43.6498 8.47362 43.6755 8.47876 43.6961 8.48906C43.7116 8.49421 43.7219 8.50451 43.7373 8.50965C43.7476 8.51995 43.7631 8.53539 43.7733 8.54569C43.7836 8.55599 43.7888 8.57143 43.7939 8.58173C43.7991 8.60232 43.8094 8.62806 43.8145 8.64865C43.8145 8.6538 43.8145 8.65895 43.8145 8.65895L43.8866 19.8456C43.8866 19.8404 43.8866 19.8404 43.8866 19.8456Z" fill="#381347"/>
<path d="M27.8508 30.713H23.681C23.1456 30.713 22.7131 31.1506 22.7131 31.6808V35.2175C22.7131 35.7529 23.1507 36.1853 23.681 36.1853H27.8508C28.3862 36.1853 28.8187 35.7529 28.8187 35.2175V31.6808C28.8187 31.1506 28.3862 30.713 27.8508 30.713ZM28.0465 35.2175C28.0465 35.3256 27.959 35.4131 27.8508 35.4131H23.681C23.5729 35.4131 23.4853 35.3256 23.4853 35.2175V31.6808C23.4853 31.5727 23.5729 31.4852 23.681 31.4852H24.1391V34.3732C24.1391 34.5843 24.3142 34.7593 24.5252 34.7593H28.0465V35.2175Z" fill="#381347"/>
<path d="M40.5972 10.9498L35.5676 10.7799C35.2999 10.7696 35.0528 10.8674 34.8623 11.0528C34.6718 11.2381 34.5688 11.4852 34.5688 11.7477V16C34.5688 16.5354 35.0064 16.9678 35.5367 16.9678H40.5714C41.1068 16.9678 41.5392 16.5302 41.5392 16V11.9176C41.529 11.3925 41.1223 10.9652 40.5972 10.9498ZM40.7568 16C40.7568 16.1081 40.6692 16.1956 40.5611 16.1956H35.5264C35.4183 16.1956 35.3308 16.1081 35.3308 16V15.5418H39.7169C39.9279 15.5418 40.103 15.3668 40.103 15.1557V11.7066L40.5714 11.722C40.6795 11.7271 40.7619 11.8147 40.7619 11.9176V16H40.7568Z" fill="#381347"/>
<path d="M7.97945 3.61393C7.77867 3.4389 7.52642 3.35653 7.25873 3.37712L2.92411 3.74263C2.65641 3.76322 2.40931 3.89707 2.24457 4.10814C2.07469 4.31406 2.00261 4.58176 2.0438 4.84945L2.60493 8.66927C2.677 9.14804 3.08369 9.4981 3.56246 9.4981C3.57275 9.4981 3.5779 9.4981 3.5882 9.4981L7.56761 9.40544C7.83015 9.40029 8.07726 9.28703 8.25744 9.09656C8.43762 8.90093 8.53028 8.65383 8.51484 8.38613L8.31407 4.29862C8.29348 4.03092 8.18022 3.78896 7.97945 3.61393ZM7.68601 8.56631C7.66542 8.5869 7.61909 8.62809 7.54701 8.62809L3.56761 8.72075C3.48009 8.74134 3.38228 8.64868 3.36683 8.55087L2.8057 4.7362C2.79541 4.66412 2.82629 4.6075 2.84689 4.58176C2.86748 4.56116 2.91381 4.51483 2.98588 4.50968L7.3205 4.14418C7.39257 4.13903 7.44405 4.16992 7.46465 4.19051C7.49039 4.2111 7.52642 4.25743 7.53157 4.3295L7.73234 8.41702C7.74264 8.49424 7.7066 8.54057 7.68601 8.56631Z" fill="#381347"/>
<path d="M21.4981 8.98836L23.1352 9.22002C23.3102 9.24576 23.4698 9.10676 23.4698 8.93173V3.81461C23.4698 3.67562 23.372 3.55721 23.2381 3.53147L21.3437 3.12993C21.1583 3.08874 20.9833 3.23804 20.9936 3.42851L21.251 8.71551C21.2561 8.85451 21.3591 8.96776 21.4981 8.98836Z" fill="#381347"/>
<path d="M28.4119 23.5831L24.2935 23.6655C23.9641 23.6706 23.7067 23.9486 23.7221 24.2781L23.8199 26.3012C23.8354 26.6101 24.0928 26.8572 24.4016 26.8572H28.4222C28.7465 26.8572 29.0039 26.5947 29.0039 26.2755V24.1751C29.0039 23.8405 28.7362 23.5779 28.4119 23.5831Z" fill="#381347"/>
<path d="M20.4583 14.3011C20.5561 16.278 20.6539 18.2548 20.7517 20.2316C23.3669 20.1699 25.9821 20.1132 28.6024 20.0669C28.5972 19.7786 28.587 19.4955 28.5818 19.2072C28.5509 17.9511 28.52 16.6898 28.4891 15.4337C25.8173 14.9961 23.1352 14.6461 20.4583 14.3011Z" fill="white"/>
<path opacity="0.5" d="M20.4583 14.3011C20.5561 16.278 20.6539 18.2548 20.7517 20.2316C23.3669 20.1699 25.9821 20.1132 28.6024 20.0669C28.5972 19.7786 28.587 19.4955 28.5818 19.2072C28.5509 17.9511 28.52 16.6898 28.4891 15.4337C25.8173 14.9961 23.1352 14.6461 20.4583 14.3011Z" fill="#381347"/>
<path d="M20.417 13.5238C23.1042 13.8739 25.7915 14.2188 28.4684 14.6564C28.4324 13.2098 28.3964 11.7581 28.3655 10.3115C28.3655 10.2857 28.3655 10.2651 28.3706 10.2394C28.3758 10.1828 28.3809 10.1313 28.3912 10.0747C28.4067 10.0026 28.4375 9.93051 28.4684 9.86359C28.489 9.82241 28.5096 9.78637 28.5354 9.75033C28.5817 9.68856 28.628 9.62678 28.6846 9.58045C29.1377 9.1892 29.5958 8.8031 30.0489 8.41185C30.471 8.04634 30.9137 7.56758 31.4182 7.31018C32.0051 7.00645 32.7979 7.11455 33.4671 7.17118V3.01674C33.4671 3.01159 33.4671 3.0116 33.4671 3.00645C33.462 2.98585 33.4568 2.96011 33.4517 2.93952C33.4414 2.92408 33.4363 2.90863 33.426 2.89834C33.4157 2.88804 33.4002 2.8726 33.3899 2.8623C33.3693 2.84686 33.3487 2.83656 33.3281 2.82627L28.8236 0.952393C28.8494 1.65252 28.8751 2.3578 28.9009 3.06307C28.906 3.2484 28.7619 3.3977 28.5868 3.43373C28.5817 3.43373 28.5765 3.43373 28.5714 3.43888C28.5508 3.44403 28.5354 3.44918 28.5148 3.44918C28.489 3.44918 28.4736 3.43888 28.4478 3.43373C28.4324 3.43373 28.4221 3.43373 28.4118 3.43373C25.5444 2.83141 22.6975 2.17247 19.8301 1.61134C19.8816 2.64094 19.933 3.67054 19.9845 4.70014C20.1287 7.63965 20.2728 10.5792 20.417 13.5238ZM21.3436 3.12485L23.2381 3.5264C23.3719 3.55728 23.4697 3.67569 23.4697 3.80954V8.92665C23.4697 9.10169 23.3153 9.24068 23.1351 9.21494L21.498 8.98328C21.359 8.96269 21.2561 8.84943 21.2458 8.71044L20.9884 3.42344C20.9832 3.23296 21.1531 3.08881 21.3436 3.12485Z" fill="white"/>
<path opacity="0.5" d="M20.417 13.5238C23.1042 13.8739 25.7915 14.2188 28.4684 14.6564C28.4324 13.2098 28.3964 11.7581 28.3655 10.3115C28.3655 10.2857 28.3655 10.2651 28.3706 10.2394C28.3758 10.1828 28.3809 10.1313 28.3912 10.0747C28.4067 10.0026 28.4375 9.93051 28.4684 9.86359C28.489 9.82241 28.5096 9.78637 28.5354 9.75033C28.5817 9.68856 28.628 9.62678 28.6846 9.58045C29.1377 9.1892 29.5958 8.8031 30.0489 8.41185C30.471 8.04634 30.9137 7.56758 31.4182 7.31018C32.0051 7.00645 32.7979 7.11455 33.4671 7.17118V3.01674C33.4671 3.01159 33.4671 3.0116 33.4671 3.00645C33.462 2.98585 33.4568 2.96011 33.4517 2.93952C33.4414 2.92408 33.4363 2.90863 33.426 2.89834C33.4157 2.88804 33.4002 2.8726 33.3899 2.8623C33.3693 2.84686 33.3487 2.83656 33.3281 2.82627L28.8236 0.952393C28.8494 1.65252 28.8751 2.3578 28.9009 3.06307C28.906 3.2484 28.7619 3.3977 28.5868 3.43373C28.5817 3.43373 28.5765 3.43373 28.5714 3.43888C28.5508 3.44403 28.5354 3.44918 28.5148 3.44918C28.489 3.44918 28.4736 3.43888 28.4478 3.43373C28.4324 3.43373 28.4221 3.43373 28.4118 3.43373C25.5444 2.83141 22.6975 2.17247 19.8301 1.61134C19.8816 2.64094 19.933 3.67054 19.9845 4.70014C20.1287 7.63965 20.2728 10.5792 20.417 13.5238ZM21.3436 3.12485L23.2381 3.5264C23.3719 3.55728 23.4697 3.67569 23.4697 3.80954V8.92665C23.4697 9.10169 23.3153 9.24068 23.1351 9.21494L21.498 8.98328C21.359 8.96269 21.2561 8.84943 21.2458 8.71044L20.9884 3.42344C20.9832 3.23296 21.1531 3.08881 21.3436 3.12485Z" fill="#381347"/>
<path opacity="0.5" d="M51.1302 21.4981C51.784 21.2047 52.0002 21.2767 52.7981 21.2767H53.0401C55.2692 21.2767 56.5407 22.2497 56.8496 24.1905C56.9474 24.8237 56.9989 25.8842 57.0092 27.3771L57.0195 28.0824L57.0401 28.9988L57.2511 30.919C57.2511 31.5264 56.9525 31.825 56.3554 31.825C56.1649 31.825 55.9435 31.7375 55.6913 31.5676C55.439 31.3977 55.2794 31.3102 55.2228 31.3102C55.161 31.3102 54.7389 31.4441 53.9461 31.7066C53.1533 31.9692 52.515 32.103 52.0311 32.103H51.7891C50.9603 32.103 50.2601 31.8302 49.699 31.2896C49.1379 30.7491 48.8547 29.9666 48.8547 28.9421C48.8547 27.9177 49.2614 27.1094 50.08 26.5071C50.6874 26.0644 51.4596 25.7915 52.4017 25.6834C53.941 25.5084 54.7492 25.4003 54.8213 25.3643C55.0169 25.2664 55.1147 24.9936 55.1147 24.5509C55.1147 23.3565 54.358 22.7388 52.8444 22.7542C51.5266 22.7697 51.0375 22.8314 50.6823 22.4762L51.1302 21.4981ZM50.7852 28.4634V28.9473C50.7852 29.4878 50.9654 29.9254 51.3309 30.2497C51.6913 30.5792 52.1803 30.7388 52.793 30.7388H52.9423C53.5394 30.7388 54.0645 30.5329 54.5227 30.1262C54.9757 29.7195 55.2022 29.2253 55.2022 28.6487L55.2228 28.4994L55.2537 27.8456V27.4852C55.2537 27.1764 55.161 26.9601 54.9809 26.8417C54.8007 26.7233 54.4455 26.6616 53.9255 26.6616H53.7659L53.6836 26.6719H53.4519L53.2202 26.6924C53.071 26.713 52.9423 26.7233 52.829 26.7233C52.2215 26.7233 51.7325 26.8881 51.3567 27.2124C50.9757 27.5522 50.7852 27.964 50.7852 28.4634Z" fill="#381347"/>
<path opacity="0.5" d="M59.8613 29.2149V27.8507L59.8716 27.6705C59.8716 27.5521 59.8716 27.4337 59.8716 27.3102L59.9334 24.3758V24.0051L59.954 23.444C59.954 19.825 59.9746 17.8069 60.0158 17.3848C60.0724 16.8031 60.3555 16.5096 60.86 16.5096H61.0299C61.5035 16.5096 61.7815 16.7156 61.8639 17.1326C61.8896 17.2664 61.9051 18.1416 61.9051 19.7632L61.8742 20.6692C61.8742 20.7876 61.8742 20.906 61.8742 21.0296L61.833 22.4968C61.833 26.1519 61.8485 28.1802 61.8845 28.5869C61.9205 28.9936 62.0183 29.4569 62.1831 29.9717C62.3478 30.4865 62.4302 30.8777 62.4302 31.1454C62.4302 31.722 62.1007 32.0103 61.4469 32.0103H61.1174C60.7005 32.0103 60.3864 31.7477 60.1702 31.2175C59.954 30.6872 59.8613 30.0232 59.8613 29.2149Z" fill="#381347"/>
<path d="M54.6411 7.38745C53.9461 7.38745 53.2357 7.58308 52.5098 7.97947C52.2267 8.13391 52.0465 8.21113 51.959 8.21113C51.8715 8.21113 51.7222 8.10817 51.4957 7.90225C51.2691 7.69633 51.0014 7.59337 50.6823 7.59337C49.8586 7.59337 49.3953 7.76326 49.2975 8.10817C49.282 8.15965 49.2769 9.33855 49.2769 11.6449V15.4853L49.2254 18.3784V19.3617L49.2151 19.6037V19.8456C49.2151 21.2201 49.2614 22.0026 49.3592 22.1983C49.457 22.3939 49.7556 22.4917 50.2601 22.4917H50.4815C50.9963 22.4917 51.3464 22.363 51.5317 22.1107C51.717 21.8585 51.8097 21.4003 51.8097 20.7362C51.8097 18.8366 51.9744 17.8842 52.3039 17.8842C52.3605 17.8842 52.5098 17.9254 52.7466 18.0129C52.9834 18.1004 53.2254 18.1725 53.4725 18.2446C53.7144 18.3167 54.0954 18.3527 54.6102 18.3527C55.125 18.3527 55.6707 18.2394 56.2421 18.0129C57.4365 17.5342 58.2447 16.5509 58.6617 15.0683C58.8573 14.363 58.9551 13.6268 58.9551 12.8598V12.3295C58.9551 11.5367 58.847 10.8006 58.6256 10.1313C58.0388 8.3038 56.7054 7.38745 54.6411 7.38745ZM56.412 12.8958L56.4017 13.3385L56.3811 13.5599C56.3811 14.3836 56.1495 15.0683 55.6913 15.614C55.228 16.1597 54.6462 16.4325 53.9307 16.4325H53.6372C53.0812 16.4325 52.6437 16.2575 52.3245 15.9074C52.0053 15.5573 51.8457 15.1146 51.8457 14.5741L51.8148 14.0696L51.8045 13.7658L51.7942 13.6577V12.4119C51.7942 11.3617 51.9075 10.6513 52.134 10.2806C52.5201 9.64228 53.1173 9.31795 53.9307 9.31795H54.3528C55.0066 9.31795 55.5471 9.64743 55.9693 10.3115C56.273 10.7851 56.4223 11.5316 56.4223 12.5612V12.8958H56.412Z" fill="#381347"/>
<path d="M83.5265 17.5959C83.7633 17.4569 83.9126 17.3848 83.9744 17.3848C84.0362 17.3848 84.1185 17.4517 84.2318 17.5856C84.345 17.7194 84.4532 17.8224 84.5664 17.8945C84.6797 17.9665 84.9268 18.0077 85.3232 18.0077C86.1726 18.0077 86.5999 17.601 86.5999 16.7928V16.7722V16.0566L86.5896 15.094V14.3887L86.5587 12.4582V10.7079L86.5484 10.2136V7.50065L86.5381 7.2484V6.26513L86.5278 5.52382V4.67439C86.5278 4.43759 86.5227 4.23681 86.5175 4.07208L86.5072 3.83012C86.5072 3.37195 86.4712 3.07851 86.3991 2.95496C86.2704 2.73874 85.9615 2.62549 85.4725 2.62549H85.0297C84.6642 2.62549 84.3914 2.75934 84.2061 3.02703C84.0207 3.29473 83.9332 3.87645 83.9332 4.77735C83.9332 5.67826 83.8508 6.45046 83.6913 7.09911C83.614 7.40799 83.4596 7.56243 83.2279 7.56243C83.1353 7.56243 82.9036 7.51609 82.533 7.42343C82.1623 7.33077 81.7041 7.28443 81.1687 7.28443C80.6333 7.28443 80.1082 7.41313 79.5831 7.66539C78.5124 8.18534 77.771 9.11198 77.3541 10.4402C77.107 11.233 76.9834 12.0515 76.9834 12.8906V13.4054C76.9834 14.9447 77.3489 16.139 78.0799 16.9833C78.8109 17.8276 79.8097 18.2497 81.0658 18.2497H81.3077C82.0387 18.26 82.7749 18.0386 83.5265 17.5959ZM79.9075 15.3359C79.5883 14.8417 79.4339 14.0644 79.4339 13.0039V12.6641C79.4339 10.3835 80.1958 9.24582 81.7247 9.24582L81.8328 9.23553C82.5844 9.23553 83.1559 9.48778 83.542 9.98714C83.8097 10.3321 83.9435 11.0167 83.9435 12.036V13.1738C83.9435 14.26 83.8302 14.9859 83.6037 15.3617C83.2176 16.0103 82.6411 16.3346 81.8843 16.3346H81.4828C80.8547 16.3295 80.3296 16 79.9075 15.3359Z" fill="#381347"/>
<path d="M96.4481 18.4298C97.2667 18.4298 98.0595 18.2445 98.8265 17.879C99.5987 17.5135 99.9848 17.1531 99.9848 16.7979C99.9848 16.4427 99.9076 16.175 99.7583 15.9948C99.609 15.8147 99.4185 15.7271 99.1972 15.7271C98.9758 15.7271 98.5537 15.8147 97.9256 15.9948C97.2976 16.175 96.6489 16.2625 95.9745 16.2625C95.3001 16.2625 94.739 16.0875 94.2963 15.7323C93.8535 15.3771 93.6322 14.9035 93.6322 14.296C93.6322 13.8172 94.7699 13.5804 97.0402 13.5804C98.4044 13.5804 99.3053 13.4878 99.7377 13.3024C100.17 13.1171 100.386 12.7207 100.386 12.1132V11.408C100.386 10.9138 100.273 10.3784 100.041 9.79149C99.8098 9.20977 99.5369 8.75674 99.2126 8.44272C98.4507 7.7117 97.3439 7.34619 95.887 7.34619C95.0273 7.34619 94.2602 7.49034 93.5858 7.77862C91.7686 8.55082 90.8625 10.2291 90.8625 12.8031V13.3076C90.8625 14.0232 90.9707 14.7387 91.192 15.4389C91.5781 16.7053 92.4327 17.5804 93.7557 18.0592C94.4301 18.3063 95.0736 18.4298 95.6759 18.4298H96.4481ZM93.5756 11.6087V11.4389C93.5756 10.8417 93.7815 10.332 94.1985 9.92019C94.6154 9.50835 95.1251 9.29729 95.7377 9.29729H96.0003C96.5202 9.29729 96.9681 9.45687 97.3387 9.7812C97.7094 10.1055 97.8999 10.5431 97.8999 11.0991V11.2793C97.8999 11.5984 97.7094 11.7529 97.3284 11.7529L97.0968 11.7735L94.8574 11.8816L94.7956 11.8919H94.2551C93.8021 11.8919 93.5756 11.7992 93.5756 11.6087Z" fill="#381347"/>
<path d="M76.0104 21.4414C75.5162 21.1634 74.9757 21.0244 74.3888 21.0244C73.8019 21.0244 73.3953 21.0501 73.1687 21.1068C72.9422 21.1634 72.6848 21.2406 72.3862 21.3384C72.0877 21.4362 71.8972 21.4877 71.8045 21.4877C71.4647 21.4877 71.3 20.7876 71.3 19.3822C71.3 19.2638 71.3 19.1608 71.2949 19.0476C71.2949 19.0476 71.2949 19.0321 71.2949 19.0218C71.2949 18.9549 71.2949 18.8828 71.2949 18.821C71.3052 18.4452 71.4184 17.5907 72.0722 16.2985C72.2627 15.9793 72.4274 15.619 72.5613 15.2071C72.7878 14.4967 72.9062 13.7657 72.9062 13.0192V12.2779C72.9062 11.5263 72.7929 10.8416 72.5664 10.229C72.1082 8.96776 71.2485 8.09775 69.9924 7.61899C69.385 7.39247 68.7569 7.27922 68.1031 7.27922L67.9126 7.26892C67.1404 7.26892 66.4248 7.38732 65.7762 7.62928C65.1275 7.86609 64.5922 8.20071 64.1803 8.63314C63.7685 9.06043 63.439 9.61126 63.1971 10.2805C62.9551 10.9497 62.8315 11.6756 62.8315 12.4684V13.2097C62.8315 14.785 63.2176 16.0154 63.995 16.8957C64.8804 17.9098 66.0387 18.4144 67.4699 18.4144H68.031C68.2061 18.4144 68.3811 18.4041 68.551 18.3886C68.5407 18.9806 68.5355 19.7219 68.5355 20.6383V24.2831L68.5252 24.7773C68.5252 25.1943 68.5252 25.6061 68.5252 26.0231L68.5149 26.7644V28.2522L68.5046 28.5044V28.9987C68.5046 30.3062 68.5716 31.1196 68.7106 31.4285C68.8496 31.7374 69.246 31.8918 69.8998 31.8918C70.2653 31.8918 70.5535 31.8249 70.7698 31.6911C70.986 31.5572 71.0992 31.4903 71.1198 31.4903C71.1353 31.4903 71.4544 31.5932 72.0619 31.794C72.6694 31.9948 73.2151 32.0977 73.6887 32.0977H73.9409C74.5896 32.0977 75.2073 31.9588 75.7994 31.6756C77.4107 30.9086 78.2189 29.2818 78.2189 26.8005V26.2702C78.2189 24.8082 77.8843 23.5624 77.2151 22.5431C76.901 22.09 76.5046 21.7194 76.0104 21.4414ZM68.0207 16.3912H67.5883C66.8985 16.3912 66.3631 16.0926 65.977 15.5006C65.5909 14.9034 65.4004 14.1158 65.4004 13.1325V12.4581C65.4004 11.4388 65.6115 10.6563 66.0284 10.1106C66.4454 9.56493 67.0066 9.29209 67.7016 9.29209H68.0207C68.7363 9.29209 69.2974 9.58037 69.7041 10.1621C70.1108 10.7438 70.3116 11.5418 70.3116 12.5662V13.1274C70.3116 14.1261 70.1211 14.924 69.7402 15.5109C69.3592 16.0977 68.7878 16.3912 68.0207 16.3912ZM75.6192 27.063C75.6192 28.0463 75.4596 28.7721 75.1353 29.2355C74.6925 29.8738 74.1005 30.1981 73.3592 30.1981H72.9371C72.3553 30.1981 71.9023 30.0128 71.5883 29.637C71.2743 29.2612 71.1147 28.7567 71.1147 28.1183C71.1147 28.0566 71.1095 27.9896 71.1044 27.9176L71.0735 27.3153L71.0632 27.2071V26.1724C71.0632 25.0862 71.1868 24.3552 71.4339 23.9742C71.8045 23.3925 72.3811 23.099 73.1533 23.099H73.5651C74.1571 23.099 74.6359 23.341 75.0117 23.8198C75.3875 24.2985 75.5729 24.8751 75.5729 25.534C75.5729 25.5958 75.578 25.6988 75.5934 25.8378V26.0591L75.614 26.4916L75.6243 26.61V27.063H75.6192Z" fill="#381347"/>
<path d="M90.5175 26.8314C90.5175 25.4826 90.4712 24.5354 90.3785 23.9897C90.2859 23.444 90.0954 22.9756 89.7968 22.5792C89.0297 21.5496 87.7427 21.0399 85.9307 21.0399H85.6681C84.5561 21.0399 83.6037 21.2252 82.8161 21.601C82.255 21.8687 81.9718 22.2394 81.9718 22.7079C81.9718 22.9962 82.0491 23.2381 82.2086 23.4234C82.3682 23.6139 82.5433 23.7066 82.7337 23.7066C82.9242 23.7066 83.3772 23.6139 84.0877 23.4337C84.7981 23.2536 85.4056 23.166 85.8843 23.166C87.1868 23.166 87.8354 23.6808 87.8354 24.7156C87.8354 24.9987 87.7736 25.1738 87.6552 25.2407C87.5368 25.3076 87.0529 25.3591 86.2086 25.3951C83.7685 25.4929 82.2344 26.1261 81.6166 27.2947C81.3901 27.7169 81.2769 28.1339 81.2769 28.5509V29.0657C81.2769 29.9408 81.5651 30.6821 82.1417 31.2999C82.7183 31.9177 83.5162 32.2214 84.5252 32.2214H84.7775C85.2974 32.2214 85.9152 32.0772 86.6359 31.7941C87.3566 31.511 87.7582 31.3668 87.8509 31.3668C87.9435 31.3668 88.0619 31.4389 88.2164 31.5779C88.3657 31.7169 88.5304 31.8353 88.7054 31.9279C88.8805 32.0206 89.1996 32.0669 89.6681 32.0669C90.1366 32.0669 90.4352 31.9846 90.5742 31.8198C90.7132 31.6551 90.7852 31.3926 90.7852 31.027C90.7852 30.6615 90.7389 30.2137 90.6462 29.668C90.5536 29.1223 90.5175 28.1802 90.5175 26.8314ZM87.9538 27.9485L87.9435 28.0772C87.9435 28.7671 87.856 29.2252 87.681 29.4518C87.2794 29.9666 86.7234 30.224 86.013 30.224H85.7093C85.2923 30.224 84.9062 30.1056 84.5458 29.8636C84.1855 29.6216 84.0053 29.3231 84.0053 28.9678C84.0053 28.9267 84.0001 28.8546 83.9847 28.7568V28.3655C83.9847 27.9949 84.1906 27.6757 84.6076 27.4131C85.0246 27.1506 85.6166 27.0219 86.394 27.0219H87.2485C87.7222 27.0219 87.9538 27.2433 87.9538 27.686V27.9485Z" fill="#381347"/>
<path d="M100.252 21.529C99.7891 21.529 99.403 21.601 99.089 21.7452C98.7749 21.8893 98.5021 22.0489 98.2601 22.2239C98.0182 22.399 97.8689 22.4865 97.8174 22.4865C97.7659 22.4865 97.6733 22.4041 97.5497 22.2394C97.4262 22.0746 97.2975 21.9511 97.1791 21.8739C96.7981 21.6216 96.4274 21.4929 96.0722 21.4929H95.9126C95.5317 21.4929 95.2537 21.5856 95.0838 21.7761C94.9139 21.9665 94.8264 22.2651 94.8264 22.6718V23.0013C94.8264 23.1094 94.8522 23.3668 94.9036 23.7786C94.9551 24.1905 94.9809 24.5457 94.9809 24.8391L95.0014 25.3797C95.0014 25.4981 95.0014 25.6165 95.0014 25.74L95.0117 26.2806V26.6512L95.022 27.2021V28.1184L95.0014 28.6589L94.9088 30.61C94.9088 31.305 94.9603 31.7169 95.0684 31.8456C95.1765 31.9743 95.4236 32.036 95.82 32.036L96.0002 32.0463H96.1803C96.8908 32.0463 97.3232 31.9125 97.4725 31.6448C97.6218 31.3771 97.699 30.2857 97.699 28.3655C97.699 26.4453 97.7968 25.287 97.9924 24.8803C98.1881 24.4736 98.4558 24.1956 98.7852 24.0412C99.1147 23.8867 99.5523 23.8095 100.093 23.8095C100.633 23.8095 100.978 23.7426 101.117 23.6088C101.442 23.305 101.601 22.9035 101.601 22.3938C101.601 22.2085 101.493 22.0232 101.272 21.8224C101.05 21.6216 100.716 21.529 100.252 21.529Z" fill="#381347"/>
<path d="M110.25 21.529C109.786 21.529 109.4 21.601 109.086 21.7452C108.772 21.8893 108.499 22.0489 108.257 22.2239C108.015 22.399 107.866 22.4865 107.815 22.4865C107.763 22.4865 107.671 22.4041 107.547 22.2394C107.423 22.0746 107.295 21.9511 107.176 21.8739C106.795 21.6216 106.425 21.4929 106.07 21.4929H105.91C105.529 21.4929 105.251 21.5856 105.081 21.7761C104.911 21.9665 104.824 22.2651 104.824 22.6718V23.0013C104.824 23.1094 104.849 23.3668 104.901 23.7786C104.952 24.1905 104.978 24.5457 104.978 24.8391L104.999 25.3797C104.999 25.4981 104.999 25.6165 104.999 25.74L105.009 26.2806V26.6512L105.019 27.2021V28.1184L104.999 28.6589L104.906 30.61C104.906 31.305 104.958 31.7169 105.066 31.8456C105.174 31.9743 105.421 32.036 105.817 32.036L105.997 32.0463H106.178C106.888 32.0463 107.321 31.9125 107.47 31.6448C107.619 31.3771 107.696 30.2857 107.696 28.3655C107.696 26.4453 107.794 25.287 107.99 24.8803C108.185 24.4736 108.453 24.1956 108.783 24.0412C109.112 23.8867 109.55 23.8095 110.09 23.8095C110.631 23.8095 110.976 23.7426 111.115 23.6088C111.439 23.305 111.599 22.9035 111.599 22.3938C111.599 22.2085 111.49 22.0232 111.269 21.8224C111.048 21.6216 110.718 21.529 110.25 21.529Z" fill="#381347"/>
<path d="M117.817 28.8598C117.714 28.2935 117.653 27.8816 117.632 27.6242C117.612 27.3668 117.601 26.4093 117.601 24.7465C117.601 23.0837 117.57 22.1622 117.509 21.9717C117.39 21.6062 116.999 21.4209 116.335 21.4209H115.923C115.47 21.4209 115.177 21.4621 115.032 21.5496C114.888 21.632 114.816 21.843 114.816 22.1828V22.4351L115.089 24.1236L115.099 24.3964C115.099 24.4891 115.099 24.5818 115.099 24.6693L115.11 25.0914V25.6526L115.099 26.0747V27.4801L115.089 27.7529C115.089 27.8456 115.089 27.9383 115.089 28.0258L115.079 28.2986C115.079 28.3759 115.048 28.6435 114.991 29.1017C114.929 29.5599 114.904 30.0798 114.904 30.6667C114.904 31.2536 114.996 31.6603 115.177 31.8919C115.29 32.0309 115.604 32.103 116.119 32.103H116.391C117.066 32.103 117.503 32.0258 117.699 31.8765C117.895 31.7272 117.992 31.3257 117.992 30.677V30.2858L117.972 30.0232C117.972 29.8173 117.92 29.426 117.817 28.8598Z" fill="#381347"/>
<path d="M115.022 18.8778C115.022 19.3823 115.274 19.6397 115.774 19.6397C115.799 19.6397 115.836 19.6448 115.866 19.65L116.237 19.6809L116.289 19.6911H116.381C117.308 19.6911 117.776 19.408 117.776 18.8469L117.807 18.6152L117.828 18.4144V18.1725L117.797 17.8791C117.797 17.3179 117.545 17.0348 117.035 17.0348C116.999 17.0348 116.968 17.0296 116.942 17.0245L116.618 16.9884L116.567 16.9781H116.325L116.041 17.009C115.702 17.009 115.449 17.0966 115.274 17.2664C115.099 17.4363 115.017 17.6062 115.017 17.7658C115.017 17.9254 115.007 18.0489 114.986 18.1365V18.538L115.007 18.7285C115.002 18.7594 115.012 18.8108 115.022 18.8778Z" fill="#381347"/>
<path d="M131.336 24.1338C130.878 22.8725 130.018 22.0025 128.762 21.5238C128.154 21.2973 127.526 21.184 126.873 21.184L126.682 21.1737C125.91 21.1737 125.194 21.2921 124.546 21.5341C123.897 21.776 123.362 22.1055 122.95 22.5379C122.538 22.9652 122.209 23.516 121.967 24.1853C121.725 24.8545 121.601 25.5804 121.601 26.3732V27.1145C121.601 28.6898 121.987 29.9202 122.765 30.8005C123.65 31.8146 124.808 32.3191 126.239 32.3191H126.801C127.547 32.3191 128.237 32.1801 128.865 31.897C129.493 31.6139 130.008 31.2586 130.399 30.8262C130.79 30.3938 131.104 29.8224 131.336 29.1119C131.562 28.4015 131.681 27.6705 131.681 26.924V26.1827C131.676 25.4311 131.562 24.7464 131.336 24.1338ZM129.086 27.0167C129.086 28.0154 128.896 28.8133 128.515 29.4002C128.134 29.9871 127.562 30.2857 126.795 30.2857H126.363C125.673 30.2857 125.138 29.9871 124.752 29.3951C124.366 28.803 124.175 28.0103 124.175 27.027V26.3526C124.175 25.3333 124.386 24.5508 124.803 24.0051C125.22 23.4594 125.781 23.1866 126.476 23.1866H126.795C127.511 23.1866 128.072 23.4749 128.479 24.0566C128.885 24.6383 129.086 25.4363 129.086 26.4607V27.0167Z" fill="#381347"/>
<path d="M110.25 7.6293C109.786 7.6293 109.4 7.70137 109.086 7.84551C108.772 7.98966 108.499 8.14925 108.257 8.32428C108.015 8.49931 107.866 8.58683 107.815 8.58683C107.763 8.58683 107.671 8.50446 107.547 8.33972C107.418 8.17499 107.295 8.05143 107.176 7.97421C106.795 7.72196 106.425 7.59326 106.07 7.59326H105.91C105.529 7.59326 105.251 7.68593 105.081 7.8764C104.911 8.06688 104.824 8.36546 104.824 8.77216V9.10163C104.824 9.20974 104.849 9.46714 104.901 9.87898C104.952 10.2908 104.978 10.646 104.978 10.9395L104.999 11.48C104.999 11.5984 104.999 11.7168 104.999 11.8404L105.009 12.3809V12.7516L105.019 13.3024V14.2187L104.999 14.7593L104.906 16.7104C104.906 17.4054 104.958 17.8172 105.066 17.9459C105.174 18.0746 105.421 18.1364 105.817 18.1364L105.997 18.1467H106.178C106.888 18.1467 107.321 18.0128 107.47 17.7451C107.619 17.4774 107.696 16.3861 107.696 14.4658C107.696 12.5456 107.794 11.3873 107.99 10.9806C108.185 10.574 108.453 10.296 108.783 10.1415C109.112 9.98708 109.55 9.90986 110.09 9.90986C110.631 9.90986 110.976 9.84294 111.115 9.70909C111.439 9.40536 111.599 9.00382 111.599 8.49416C111.599 8.30883 111.49 8.12351 111.269 7.92273C111.048 7.72196 110.718 7.6293 110.25 7.6293Z" fill="#381347"/>
</svg>
